<?xml version="1.0" encoding="UTF-8"?>
<!DOCTYPE svg PUBLIC "-//W3C//DTD SVG 1.1//EN" "http://www.w3.org/Graphics/SVG/1.1/DTD/svg11.dtd">
<svg xmlns="http://www.w3.org/2000/svg" version="1.1" width="3253px" height="742px" style="shape-rendering:geometricPrecision; text-rendering:geometricPrecision; image-rendering:optimizeQuality; fill-rule:evenodd; clip-rule:evenodd" xmlns:xlink="http://www.w3.org/1999/xlink">
<g><path style="opacity:0.998" fill="#fefffe" d="M 1441.5,-0.5 C 1468.17,-0.5 1494.83,-0.5 1521.5,-0.5C 1524.73,0.894709 1527.23,3.22804 1529,6.5C 1529.67,190.5 1529.67,374.5 1529,558.5C 1527.75,561.381 1525.58,563.214 1522.5,564C 1495.17,564.667 1467.83,564.667 1440.5,564C 1437.42,563.214 1435.25,561.381 1434,558.5C 1433.33,374.5 1433.33,190.5 1434,6.5C 1435.77,3.22804 1438.27,0.894709 1441.5,-0.5 Z"/></g>
<g><path style="opacity:0.992" fill="#fefffe" d="M 1875.5,-0.5 C 1902.17,-0.5 1928.83,-0.5 1955.5,-0.5C 1958.73,0.894709 1961.23,3.22804 1963,6.5C 1963.67,182.167 1963.67,357.833 1963,533.5C 1960.5,540 1956,544.5 1949.5,547C 1879.97,575.65 1808.31,582.983 1734.5,569C 1672.27,550.45 1633.11,509.616 1617,446.5C 1607.7,405.491 1606.03,364.157 1612,322.5C 1617.91,283.71 1632.91,249.043 1657,218.5C 1687.39,185.224 1725.23,167.391 1770.5,165C 1802.82,163.499 1834.82,165.999 1866.5,172.5C 1866.33,117.832 1866.5,63.1657 1867,8.5C 1868.35,3.98479 1871.18,0.984791 1875.5,-0.5 Z M 1793.5,249.5 C 1817.9,249.384 1841.9,252.384 1865.5,258.5C 1866.83,333.735 1866.83,408.901 1865.5,484C 1837.53,491.736 1809.2,493.736 1780.5,490C 1745.92,482.753 1724.42,461.92 1716,427.5C 1708.82,395.029 1707.82,362.362 1713,329.5C 1716.93,303.466 1728.76,281.966 1748.5,265C 1762.31,256.119 1777.31,250.953 1793.5,249.5 Z"/></g>
<g><path style="opacity:0.989" fill="#fefffe" d="M 825.5,164.5 C 900.38,161.527 959.546,190.194 1003,250.5C 1042.92,315.146 1049.59,383.146 1023,454.5C 993.954,520.2 944.121,560.034 873.5,574C 792.63,584.295 727.797,557.128 679,492.5C 642.121,434.684 633.121,372.684 652,306.5C 676.671,232.491 726.837,186.325 802.5,168C 810.304,166.767 817.971,165.601 825.5,164.5 Z M 837.5,248.5 C 886.45,251.606 919.283,276.273 936,322.5C 950.058,365.815 945.725,407.148 923,446.5C 892.929,487.967 853.429,500.801 804.5,485C 768.564,467.197 747.231,438.364 740.5,398.5C 733.307,356.616 742.14,318.616 767,284.5C 785.488,262.507 808.988,250.507 837.5,248.5 Z"/></g>
<g><path style="opacity:0.99" fill="#fefffe" d="M 1249.5,164.5 C 1280.39,163.548 1311.06,165.715 1341.5,171C 1349.71,172.241 1357.71,174.241 1365.5,177C 1369.37,180.66 1370.53,185.16 1369,190.5C 1363.8,209.11 1358.8,227.777 1354,246.5C 1352.56,252.94 1348.56,255.94 1342,255.5C 1314.64,250.606 1287.14,249.439 1259.5,252C 1232.83,256.998 1217.33,272.831 1213,299.5C 1212.67,385.167 1212.33,470.833 1212,556.5C 1210.81,560.36 1208.31,562.86 1204.5,564C 1177.17,564.667 1149.83,564.667 1122.5,564C 1119.67,562.5 1117.5,560.333 1116,557.5C 1115.33,468.167 1115.33,378.833 1116,289.5C 1117.3,260.924 1125.97,234.924 1142,211.5C 1163.21,186.974 1190.04,172.474 1222.5,168C 1231.63,166.71 1240.63,165.543 1249.5,164.5 Z"/></g>
<g><path style="opacity:0.991" fill="#fefffe" d="M 2141.5,741.5 C 2114.5,741.5 2087.5,741.5 2060.5,741.5C 2056.85,740.017 2054.35,737.35 2053,733.5C 2052.33,558.5 2052.33,383.5 2053,208.5C 2054.67,202.159 2058.51,197.659 2064.5,195C 2126.42,169.344 2190.76,160.011 2257.5,167C 2333.66,179.162 2381.16,222.662 2400,297.5C 2413.54,356.177 2410.2,413.843 2390,470.5C 2363.58,535.231 2315.41,570.398 2245.5,576C 2213.18,577.43 2181.18,574.93 2149.5,568.5C 2149.67,623.501 2149.5,678.501 2149,733.5C 2147.65,737.35 2145.15,740.017 2141.5,741.5 Z M 2202.5,248.5 C 2265.77,246.594 2299.93,277.26 2305,340.5C 2308.14,369.136 2306.47,397.469 2300,425.5C 2289.38,465.457 2263.55,487.291 2222.5,491C 2198.1,491.567 2174.1,488.733 2150.5,482.5C 2149.33,407.502 2149.17,332.502 2150,257.5C 2167.33,252.861 2184.83,249.861 2202.5,248.5 Z"/></g>
<g><path style="opacity:0.991" fill="#fefffe" d="M 2621.5,164.5 C 2651.13,162.947 2680.46,165.114 2709.5,171C 2764.03,185.507 2793.53,221.007 2798,277.5C 2798.99,363.557 2798.66,449.557 2797,535.5C 2795.94,538.562 2794.11,541.062 2791.5,543C 2769.56,555.092 2746.23,563.425 2721.5,568C 2669.59,578.301 2617.59,578.968 2565.5,570C 2498.38,553.689 2465.05,510.856 2465.5,441.5C 2468.01,378.149 2499.67,337.315 2560.5,319C 2583.4,312.68 2606.74,309.347 2630.5,309C 2654.5,308.5 2678.5,308.333 2702.5,308.5C 2703.49,293.378 2700.65,279.045 2694,265.5C 2687.7,256.549 2679.2,250.716 2668.5,248C 2648.29,244.104 2627.96,243.437 2607.5,246C 2595.75,247.107 2584.09,248.774 2572.5,251C 2556.7,254.741 2540.87,258.241 2525,261.5C 2519.22,261.776 2514.88,259.442 2512,254.5C 2507.36,237.935 2503.03,221.269 2499,204.5C 2495.72,191.776 2500.56,184.276 2513.5,182C 2548.96,171.923 2584.96,166.089 2621.5,164.5 Z M 2625.5,383.5 C 2651.17,383.5 2676.83,383.5 2702.5,383.5C 2702.5,418.833 2702.5,454.167 2702.5,489.5C 2674.01,497.574 2645.01,500.407 2615.5,498C 2572.55,491.027 2555.72,466.194 2565,423.5C 2570.35,408.153 2580.51,397.32 2595.5,391C 2605.31,387.214 2615.31,384.714 2625.5,383.5 Z"/></g>
<g><path style="opacity:0.99" fill="#fefffe" d="M -0.5,191.5 C -0.5,189.167 -0.5,186.833 -0.5,184.5C 0.920984,181.242 3.25432,178.742 6.5,177C 35.8333,176.333 65.1667,176.333 94.5,177C 96.286,177.785 97.786,178.951 99,180.5C 124.95,268.965 150.284,357.631 175,446.5C 198.787,367.693 222.121,288.693 245,209.5C 252.422,191.749 265.589,180.916 284.5,177C 298.5,176.333 312.5,176.333 326.5,177C 350.917,183.088 365.417,198.588 370,223.5C 391.511,297.879 413.178,372.212 435,446.5C 460.479,358.257 485.812,269.924 511,181.5C 512.543,179.622 514.376,178.122 516.5,177C 545.5,176.333 574.5,176.333 603.5,177C 608.446,178.711 611.113,182.211 611.5,187.5C 574.834,303.998 537.667,420.332 500,536.5C 485.514,559.406 464.681,568.739 437.5,564.5C 406.632,569.156 384.799,557.49 372,529.5C 350.051,454.326 327.718,379.326 305,304.5C 283,379.167 261,453.833 239,528.5C 231.934,548.232 218.1,560.065 197.5,564C 181.167,564.667 164.833,564.667 148.5,564C 129.978,560.137 116.811,549.637 109,532.5C 72.7633,418.627 36.2633,304.961 -0.5,191.5 Z"/></g>
<g><path style="opacity:0.99" fill="#fefffe" d="M 3252.5,184.5 C 3252.5,186.833 3252.5,189.167 3252.5,191.5C 3179.2,372.868 3106.37,554.534 3034,736.5C 3032.03,738.55 3029.87,740.217 3027.5,741.5C 3000.17,741.5 2972.83,741.5 2945.5,741.5C 2938.16,737.999 2935.99,732.333 2939,724.5C 2959.46,673.613 2979.63,622.613 2999.5,571.5C 2948.63,443.568 2897.97,315.568 2847.5,187.5C 2847.89,182.211 2850.55,178.711 2855.5,177C 2883.83,176.333 2912.17,176.333 2940.5,177C 2943.17,178.25 2945.34,180.083 2947,182.5C 2981.33,273.5 3015.67,364.5 3050,455.5C 3084.67,364.167 3119.33,272.833 3154,181.5C 3155.73,179.383 3157.9,177.883 3160.5,177C 3188.83,176.333 3217.17,176.333 3245.5,177C 3248.77,178.767 3251.11,181.267 3252.5,184.5 Z"/></g>
</svg>
